Love for All and Sharing is the first step to solving all the problems of humanity.

Website I want to share. 
               
   http://www.scenetime.com
 
 
  Credit to EVERYONE for sharing and seeding back
 especially to SCENETIME.COM where i get all my 
 downloads.


 support www.scenetime.com to grow faster.

                             
                                                            
                                                   

.                 ..................................NFO:....................................*******************************************************************************
                 22.Bullets.2009.576p.DVDRip.AC3.X264-BARC0DE
*******************************************************************************

-------------------------------------------------------------------------------
                              General Information
-------------------------------------------------------------------------------
Type.................: Movie
Name.................: 22 Bullets (L'immortel (original title)
Movie Information....: http://www.imdb.com/title/tt1167638/
Genre................: Action | Crime | Thriller
-------------------------------------------------------------------------------
                                    PLOT
-------------------------------------------------------------------------------
A retired mobster goes on a revenge spree after being left for dead with 22 
bullets in his body by his former childhood friend.

-------------------------------------------------------------------------------
                                    CAST
-------------------------------------------------------------------------------
Jean Reno	... 	Charly Matte
Kad Merad	... 	Tony Zacchia
Gabriella Wright	... 	Yasmina Telaa
Richard Berry	... 	Aurelio Rampoli
Marina Fos	... 	Marie Goldman
Claude Gensac	... 	Mme Fontarosa
Jean-Pierre Darroussin	... 	Martin Beaudinard
Venantino Venantini	... 	Padovano
Fani Kolarova	... 	Christelle Mattei
Josphine Berry	... 	Eva
Daniel Lundh	... 	Malek Telaa
Denis Braccini	... 	Le boumian

-------------------------------------------------------------------------------
                                    MEDiA iNFO
-------------------------------------------------------------------------------

General
Complete name                    : 22.Bullets.2009.576p.DVDRip.AC3.X264-BARC0DE.mkv
Format                           : Matroska
File size                        : 1.45 GiB
Duration                         : 1h 52mn
Overall bit rate                 : 1 849 Kbps


Video
ID                               : 1
Format                           : AVC
Format/Info                      : Advanced Video Codec
Format profile                   : Main@L3.0
Format settings, CABAC           : No
Format settings, ReFrames        : 2 frames
Muxing mode                      : Container profile=Unknown@3.0
Codec ID                         : V_MPEG4/ISO/AVC
Duration                         : 1h 52mn
Bit rate                         : 1 411 Kbps
Width                            : 720 pixels
Height                           : 576 pixels
Display aspect ratio             : 2.35:1
Frame rate                       : 25.000 fps
Standard                         : PAL
Color space                      : YUV
Chroma subsampling               : 4:2:0
Bit depth                        : 8 bits
Scan type                        : Progressive
Bits/(Pixel*Frame)               : 0.136
Stream size                      : 1.07 GiB (74%)
Writing library                  : x264 core 79


Audio
ID                               : 2
Format                           : AC-3
Format/Info                      : Audio Coding 3
Mode extension                   : CM (complete main)
Codec ID                         : A_AC3
Duration                         : 1h 52mn
Bit rate mode                    : Constant
Bit rate                         : 448 Kbps
Channel(s)                       : 6 channels
Channel positions                : Front: L C R, Side: L R, LFE
Sampling rate                    : 48.0 KHz
Stream size                      : 360 MiB (24%)
Language                         : French

Menu
00:00:00.000                     : Chapter 1
00:10:45.640                     : Chapter 2
00:20:32.440                     : Chapter 3
00:29:09.040                     : Chapter 4
00:38:54.640                     : Chapter 5
00:50:29.440                     : Chapter 6
00:59:13.840                     : Chapter 7
01:08:25.840                     : Chapter 8
01:17:33.040                     : Chapter 9
01:26:25.240                     : Chapter 10
01:37:19.240                     : Chapter 11
01:47:24.640                     : Chapter 12
01:52:19.160                     : Chapter 13